HIERARCHY
ROOT Hips
{
	OFFSET 0.00 0.00 0.00
	CHANNELS 6 Xposition Yposition Zposition Xrotation Yrotation Zrotation
	JOINT Spine
	{
		OFFSET 0.00000 1.15266 1.72900
		CHANNELS 3 Xrotation Yrotation Zrotation
		JOINT Spine1
		{
			OFFSET 0.00000 0.40032 2.27031
			CHANNELS 3 Xrotation Yrotation Zrotation
			JOINT Spine2
			{
				OFFSET 0.00000 0.20092 2.29656
				CHANNELS 3 Xrotation Yrotation Zrotation
				JOINT Spine3
				{
					OFFSET 0.00000 0.00000 2.30533
					CHANNELS 3 Xrotation Yrotation Zrotation
					JOINT Neck
					{
						OFFSET 0.00000 -0.86450 6.05149
						CHANNELS 3 Xrotation Yrotation Zrotation
						JOINT Head
						{
							OFFSET 0.00000 -0.55043 3.12167
							CHANNELS 3 Xrotation Yrotation Zrotation
							End Site
							{
								OFFSET 0.00000 0.00000 3.73175
							}
						}
					}
					JOINT RightShoulder
					{
						OFFSET -0.78828 -1.31380 4.25672
						CHANNELS 3 Xrotation Yrotation Zrotation
						JOINT RightArm
						{
							OFFSET -3.91513 -0.00000 0.00000
							CHANNELS 3 Xrotation Yrotation Zrotation
							JOINT RightForeArm
							{
								OFFSET -6.91491 -0.00000 0.00000
								CHANNELS 3 Xrotation Yrotation Zrotation
								JOINT RightHand
								{
									OFFSET -6.09622 -0.00000 0.00000
									CHANNELS 3 Xrotation Yrotation Zrotation
									JOINT RightHandEnd
									{
										OFFSET -1.74995 -0.00000 0.00000
										CHANNELS 3 Xrotation Yrotation Zrotation
										End Site
										{
											OFFSET -1.74995 -0.00000 0.00000
										}
									}
									JOINT RightHandThumb1
									{
										OFFSET -0.69998 -1.16663 -0.46665
										CHANNELS 3 Xrotation Yrotation Zrotation
										End Site
										{
											OFFSET -1.69032 -0.45292 0.00000
										}
									}
								}
							}
						}
					}
					JOINT LeftShoulder
					{
						OFFSET 0.78828 -1.31380 4.25672
						CHANNELS 3 Xrotation Yrotation Zrotation
						JOINT LeftArm
						{
							OFFSET 3.91513 0.00000 0.00000
							CHANNELS 3 Xrotation Yrotation Zrotation
							JOINT LeftForeArm
							{
								OFFSET 6.91491 0.00000 0.00000
								CHANNELS 3 Xrotation Yrotation Zrotation
								JOINT LeftHand
								{
									OFFSET 6.09622 0.00000 0.00000
									CHANNELS 3 Xrotation Yrotation Zrotation
									JOINT LeftHandEnd
									{
										OFFSET 1.74995 0.00000 0.00000
										CHANNELS 3 Xrotation Yrotation Zrotation
										End Site
										{
											OFFSET 1.74995 0.00000 0.00000
										}
									}
									JOINT LeftHandThumb1
									{
										OFFSET 0.69998 -1.16663 -0.46665
										CHANNELS 3 Xrotation Yrotation Zrotation
										End Site
										{
											OFFSET 1.69032 -0.45292 0.00000
										}
									}
								}
							}
						}
					}
				}
			}
		}
	}
	JOINT RightUpLeg
	{
		OFFSET -2.33857 0.00000 -0.68318
		CHANNELS 3 Xrotation Yrotation Zrotation
		JOINT RightLeg
		{
			OFFSET 0.00000 0.00000 -10.74496
			CHANNELS 3 Xrotation Yrotation Zrotation
			JOINT RightFoot
			{
				OFFSET 0.00000 0.00000 -10.93085
				CHANNELS 3 Xrotation Yrotation Zrotation
				JOINT RightToeBase
				{
					OFFSET 0.00000 -4.08727 -1.48765
					CHANNELS 3 Xrotation Yrotation Zrotation
					End Site
					{
						OFFSET 0.00000 -1.89187 0.00000
					}
				}
			}
		}
	}
	JOINT LeftUpLeg
	{
		OFFSET 2.33857 0.00000 -0.68318
		CHANNELS 3 Xrotation Yrotation Zrotation
		JOINT LeftLeg
		{
			OFFSET 0.00000 0.00000 -10.74496
			CHANNELS 3 Xrotation Yrotation Zrotation
			JOINT LeftFoot
			{
				OFFSET 0.00000 0.00000 -10.93085
				CHANNELS 3 Xrotation Yrotation Zrotation
				JOINT LeftToeBase
				{
					OFFSET 0.00000 -4.08727 -1.48765
					CHANNELS 3 Xrotation Yrotation Zrotation
					End Site
					{
						OFFSET 0.00000 -1.89187 0.00000
					}
				}
			}
		}
	}
}
MOTION
Frames: 12
Frame Time: 0.008342
 -0.9303 -3.5238 24.7021 16.3768 5.9479 172.6591 5.4900 -1.0276 0.9155 2.4372 -1.2206 0.4240 11.4707 10.3396 6.5210 1.2754 3.1016 -0.2671 0.2062 -0.1362 1.2386 12.9702 0.6055 0.7015 6.1723 -8.3370 4.0710 -32.5503 -9.1132 5.9510 -0.0000 0.0000 52.3120 0.9864 20.0097 9.2777 -0.0000 0.0000 -0.0000 0.0000 -0.0000 -0.0000 -1.5857 25.0977 0.6864 17.9318 21.5045 -21.7023 -0.0000 0.0000 -12.0079 -2.0310 -48.5667 -1.7558 0.0000 0.0000 0.0000 0.0000 0.0000 0.0000 10.3031 2.0233 -5.3402 24.1992 0.0000 -0.0000 -17.1661 6.1634 7.9479 -1.4527 0.0000 0.0000 -66.6578 -5.5999 5.0742 128.2027 -0.0000 -0.0000 30.3525 0.5329 -1.9634 -6.0630 -0.0000 0.0000
 -0.9429 -3.5417 24.7085 16.3916 6.0737 172.4254 5.5185 -1.1163 0.8914 2.4267 -1.3215 0.4211 11.5076 10.4541 6.7124 1.2889 3.2065 -0.2408 0.1976 -0.0472 1.2529 12.9974 0.6522 0.7101 6.2145 -8.2709 4.1420 -32.4704 -9.1514 6.1016 -0.0000 0.0000 52.1910 0.9477 20.2267 9.3058 -0.0000 0.0000 -0.0000 0.0000 0.0000 -0.0000 -1.6452 25.0766 0.6053 17.9660 21.3902 -21.7537 0.0000 0.0000 -11.9011 -2.1422 -48.4266 -1.9733 0.0000 0.0000 0.0000 -0.0000 0.0000 -0.0000 10.1054 2.3600 -5.6627 24.4447 -0.0000 0.0000 -17.2056 6.0216 8.4902 -1.4880 -0.0000 0.0000 -67.0063 -6.0156 5.3992 125.2955 -0.0000 -0.0000 30.4496 2.0059 -0.8872 -6.5514 0.0000 -0.0000
 -0.9548 -3.5643 24.7144 16.3637 6.1848 172.1979 5.5311 -1.2256 0.8669 2.4199 -1.4264 0.4203 11.5326 10.5708 6.9009 1.2987 3.3217 -0.2207 0.1813 0.0234 1.2646 13.0325 0.7022 0.7200 6.2562 -8.2220 4.2124 -32.3904 -9.1941 6.2552 -0.0000 0.0000 52.0854 0.9037 20.4341 9.3171 -0.0000 0.0000 -0.0000 -0.0000 0.0000 -0.0000 -1.7132 25.0480 0.5141 17.9974 21.2576 -21.7851 0.0000 -0.0000 -11.7872 -2.2389 -48.2791 -2.2111 -0.0000 0.0000 -0.0000 0.0000 0.0000 -0.0000 9.8533 2.6749 -5.9866 24.6895 -0.0000 0.0000 -17.2325 5.8830 9.0365 -1.5192 -0.0000 0.0000 -67.2704 -6.4598 5.7574 122.1324 0.0000 -0.0000 30.4831 3.3993 0.2528 -6.9360 -0.0000 0.0000
 -0.9665 -3.5907 24.7203 16.3110 6.2913 171.9850 5.5469 -1.3391 0.8418 2.4125 -1.5313 0.4183 11.5467 10.6798 7.0774 1.3037 3.4379 -0.2021 0.1600 0.0876 1.2738 13.0734 0.7536 0.7313 6.2963 -8.1734 4.2746 -32.3103 -9.2558 6.4089 -0.0000 0.0000 51.9952 0.8580 20.6259 9.3184 -0.0000 -0.0000 -0.0000 0.0000 -0.0000 0.0000 -1.7767 25.0217 0.4128 18.0196 21.1020 -21.7998 -0.0000 -0.0000 -11.6775 -2.3196 -48.1357 -2.4507 -0.0000 0.0000 -0.0000 0.0000 -0.0000 0.0000 9.5694 2.9775 -6.3151 24.9291 0.0000 -0.0000 -17.2459 5.7445 9.5788 -1.5463 0.0000 0.0000 -67.4103 -6.9073 6.1621 118.6967 0.0000 0.0000 30.4345 4.5996 1.3933 -7.1881 -0.0000 0.0000
 -0.9781 -3.6206 24.7266 16.2448 6.3969 171.7955 5.5738 -1.4504 0.8174 2.4096 -1.6296 0.4160 11.5478 10.7703 7.2312 1.3035 3.5521 -0.1858 0.1363 0.1476 1.2825 13.1169 0.8085 0.7438 6.3367 -8.1197 4.3286 -32.2296 -9.3377 6.5597 -0.0000 0.0000 51.9217 0.8125 20.7932 9.3099 -0.0000 0.0000 -0.0000 -0.0000 0.0000 0.0000 -1.8279 24.9938 0.3091 18.0293 20.9296 -21.8098 -0.0000 0.0000 -11.5786 -2.3850 -48.0073 -2.6798 0.0000 0.0000 0.0000 0.0000 -0.0000 -0.0000 9.2693 3.2693 -6.6454 25.1595 0.0000 -0.0000 -17.2434 5.6044 10.1040 -1.5698 0.0000 0.0000 -67.3964 -7.3343 6.6134 114.9709 -0.0000 -0.0000 30.3034 5.5205 2.4586 -7.2927 -0.0000 0.0000
 -0.9897 -3.6532 24.7332 16.1732 6.5019 171.6369 5.6129 -1.5549 0.7954 2.4197 -1.7196 0.4147 11.5332 10.8343 7.3539 1.2995 3.6597 -0.1742 0.1119 0.2072 1.2938 13.1599 0.8680 0.7566 6.3827 -8.0583 4.3759 -32.1482 -9.4331 6.7084 -0.0000 0.0000 51.8630 0.7683 20.9339 9.2995 -0.0000 0.0000 -0.0000 0.0000 -0.0000 -0.0000 -1.8671 24.9545 0.2134 18.0248 20.7579 -21.8295 0.0000 -0.0000 -11.4932 -2.4408 -47.9047 -2.8934 -0.0000 -0.0000 0.0000 0.0000 -0.0000 0.0000 8.9668 3.5470 -6.9703 25.3751 0.0000 0.0000 -17.2224 5.4618 10.5965 -1.5899 -0.0000 -0.0000 -67.2043 -7.7179 7.1017 110.9368 0.0000 -0.0000 30.1031 6.1154 3.3670 -7.2454 0.0000 -0.0000
 -1.0015 -3.6880 24.7404 16.1040 6.6073 171.5142 5.6711 -1.6484 0.7800 2.4376 -1.8009 0.4088 11.5071 10.8686 7.4459 1.2912 3.7554 -0.1702 0.0901 0.2705 1.3085 13.1976 0.9334 0.7690 6.4375 -7.9834 4.4154 -32.0645 -9.5395 6.8516 0.0000 0.0000 51.8178 0.7265 21.0458 9.2961 0.0000 0.0000 -0.0000 -0.0000 0.0000 0.0000 -1.8858 24.9018 0.1316 18.0033 20.5931 -21.8725 -0.0000 -0.0000 -11.4239 -2.4948 -47.8351 -3.0851 0.0000 -0.0000 0.0000 0.0000 0.0000 0.0000 8.6741 3.8102 -7.2852 25.5726 0.0000 -0.0000 -17.1824 5.3163 11.0460 -1.6072 -0.0000 0.0000 -66.8127 -8.0359 7.6145 106.5765 -0.0000 0.0000 29.8574 6.3811 4.0396 -7.0561 -0.0000 -0.0000
 -1.0138 -3.7240 24.7482 16.0449 6.7147 171.4291 5.7520 -1.7289 0.7732 2.4644 -1.8706 0.3978 11.4692 10.8684 7.5050 1.2811 3.8372 -0.1729 0.0721 0.3402 1.3260 13.2262 1.0049 0.7814 6.5013 -7.8936 4.4468 -31.9752 -9.6503 6.9869 -0.0000 0.0000 51.7845 0.7017 21.1315 9.3034 -0.0000 0.0000 -0.0000 0.0000 0.0000 -0.0000 -1.8831 24.8331 0.0707 17.9640 20.4420 -21.9495 0.0000 0.0000 -11.3747 -2.5530 -47.8030 -3.2481 0.0000 0.0000 0.0000 -0.0000 0.0000 -0.0000 8.4036 4.0606 -7.5870 25.7473 -0.0000 0.0000 -17.1238 5.1676 11.4462 -1.6216 0.0000 -0.0000 -66.2037 -8.2679 8.1373 101.8747 -0.0000 -0.0000 29.5931 6.3520 4.4111 -6.7446 -0.0000 0.0000
 -1.0267 -3.7606 24.7567 15.9988 6.8232 171.3787 5.8528 -1.7989 0.7768 2.5009 -1.9213 0.3832 11.4211 10.8248 7.5324 1.2709 3.9047 -0.1810 0.0599 0.4183 1.3451 13.2409 1.0852 0.7939 6.5740 -7.7853 4.4702 -31.8757 -9.7581 7.1089 -0.0000 0.0000 51.7619 0.6979 21.1939 9.3282 -0.0000 -0.0000 -0.0000 -0.0000 0.0000 -0.0000 -1.8594 24.7502 0.0334 17.9069 20.3083 -22.0637 -0.0000 0.0000 -11.3487 -2.6175 -47.8106 -3.3804 -0.0000 0.0000 -0.0000 -0.0000 0.0000 0.0000 8.1623 4.2977 -7.8703 25.8955 -0.0000 0.0000 -17.0489 5.0171 11.7938 -1.6323 0.0000 0.0000 -65.3697 -8.4016 8.6528 96.8227 0.0000 0.0000 29.3359 6.0879 4.4370 -6.3420 -0.0000 0.0000
 -1.0405 -3.7967 24.7657 15.9687 6.9312 171.3587 5.9687 -1.8649 0.7877 2.5469 -1.9392 0.3734 11.3704 10.7257 7.5273 1.2606 3.9575 -0.1914 0.0542 0.5086 1.3662 13.2390 1.1722 0.8055 6.6584 -7.6638 4.4886 -31.7615 -9.8422 7.2190 -0.0000 0.0000 51.7448 0.7259 21.2396 9.3752 -0.0000 0.0000 -0.0000 0.0000 0.0000 -0.0000 -1.8216 24.6497 0.0233 17.8372 20.2036 -22.2203 -0.0000 0.0000 -11.3407 -2.6964 -47.8550 -3.4975 -0.0000 0.0000 -0.0000 -0.0000 0.0000 -0.0000 7.9584 4.5218 -8.1351 26.0122 0.0000 0.0000 -16.9610 4.8665 12.0923 -1.6391 -0.0000 0.0000 -64.3088 -8.4289 9.1432 91.4198 0.0000 -0.0000 29.1057 5.6591 4.1008 -5.8831 -0.0000 0.0000
 -1.0551 -3.8314 24.7750 15.9530 7.0310 171.3589 6.0965 -1.9255 0.8063 2.6020 -1.9592 0.3617 11.3124 10.6070 7.5023 1.2520 3.9911 -0.2009 0.0569 0.6056 1.3872 13.2190 1.2672 0.8165 6.7571 -7.5400 4.5005 -31.6288 -9.8868 7.3217 -0.0000 0.0000 51.7275 0.7943 21.2760 9.4457 -0.0000 -0.0000 0.0000 -0.0000 0.0000 0.0000 -1.7716 24.5313 0.0360 17.7583 20.1269 -22.4116 0.0000 -0.0000 -11.3526 -2.7829 -47.9333 -3.6012 -0.0000 0.0000 -0.0000 -0.0000 -0.0000 0.0000 7.7945 4.7258 -8.3741 26.0926 -0.0000 0.0000 -16.8633 4.7199 12.3440 -1.6405 -0.0000 0.0000 -63.0312 -8.3563 9.5884 85.6780 -0.0000 -0.0000 28.9140 5.1309 3.4142 -5.4069 -0.0000 0.0000
 -1.0702 -3.8643 24.7840 15.9388 7.1104 171.3649 6.2222 -1.9986 0.8352 2.6602 -1.9718 0.3488 11.2532 10.4637 7.4695 1.2454 4.0090 -0.2072 0.0660 0.7064 1.4111 13.1827 1.3711 0.8238 6.8647 -7.4178 4.5083 -31.4714 -9.8817 7.4149 -0.0000 -0.0000 51.7075 0.9174 21.3091 9.5353 0.0000 0.0000 -0.0000 0.0000 0.0000 -0.0000 -1.7205 24.3984 0.0716 17.6803 20.0757 -22.6285 -0.0000 0.0000 -11.3828 -2.8733 -48.0390 -3.7020 -0.0000 -0.0000 -0.0000 -0.0000 0.0000 -0.0000 7.6582 4.8969 -8.5743 26.1373 0.0000 -0.0000 -16.7605 4.5832 12.5520 -1.6364 0.0000 0.0000 -61.5664 -8.2038 9.9679 79.6242 0.0000 -0.0000 28.7601 4.5553 2.4167 -4.9491 0.0000 -0.0000
